<?xml version="1.0" encoding="utf-8"?>
<!-- Generator: Adobe Illustrator 19.0.0, SVG Export Plug-In . SVG Version: 6.00 Build 0)  -->
<svg version="1.1" id="Capa_1" xmlns="http://www.w3.org/2000/svg" xmlns:xlink="http://www.w3.org/1999/xlink" x="0px" y="0px"
	 viewBox="0 0 850.4 566.9" style="enable-background:new 0 0 850.4 566.9;" xml:space="preserve">
<style type="text/css">
	.st0{fill:#4A72B0;}
	.st1{fill:#76A9DA;}
	.st2{fill:#40486C;}
	.st3{fill:#FF7701;}
	.st4{fill:#FD510C;}
	.st5{fill:#0085DD;}
	.st6{fill:#5D5D5D;}
</style>
<g id="XMLID_34_">
	<polygon id="XMLID_33_" class="st0" points="225.1,169.6 225.1,447.5 79.1,363.3 79.1,150.9 	"/>
	<polygon id="XMLID_32_" class="st1" points="371.2,150.9 371.2,361.6 225.1,447.5 225.1,169.6 	"/>
	<polygon id="XMLID_31_" class="st2" points="371.2,150.9 225.1,169.7 79.1,150.9 224.8,143.4 	"/>
	<g id="XMLID_37_">
		<polygon id="XMLID_30_" class="st3" points="225.1,309.2 225.1,395.1 244.9,383.7 245.2,258.1 315.2,237.4 315.2,198.6 
			225.1,216.3 		"/>
	</g>
	<g id="XMLID_35_">
		<polygon id="XMLID_26_" class="st4" points="225.1,309.2 225.1,395.1 205.4,383.7 205.1,258.1 135.1,237.4 135.1,198.6 
			225.1,216.3 		"/>
	</g>
</g>
<g id="XMLID_11_">
	<path id="XMLID_20_" class="st5" d="M506.5,256.4c18,4,29.1,17,29.1,35c0,23.8-15.7,38.9-44.2,38.9H429V185.9h58.2
		c28.5,0,44.2,14.9,44.2,36.9c0,16.6-9.6,28.7-24.8,33.1V256.4z M485.9,248.4c16.6,0,25.5-7.2,25.5-22.9c0-14.2-8.9-22.9-25.5-22.9
		h-36.9v45.9H485.9z M448.9,264.9v48.8h40.3c16.6,0,26.3-7.9,26.3-24.4c0-15.1-9.8-24.4-28.9-24.4H448.9z"/>
	<path id="XMLID_28_" class="st5" d="M648.6,202.5h-41.2v127.8h-20V202.5h-41.2v-16.6h102.4V202.5z"/>
	<path id="XMLID_36_" class="st5" d="M771.3,322.3c-15.3,6.4-31.4,10.2-47.8,10.2c-46.7,0-62.6-32.9-62.6-74.3
		c0-41.4,15.9-74.3,62.6-74.3c16.4,0,32.5,3.8,47.8,10.2l-3.6,15.3c-16.6-6.4-30.2-8.9-42-8.9c-33.1,0-44.8,25.3-44.8,57.8
		s11.7,57.8,44.8,57.8c11.9,0,25.5-2.5,42-8.9L771.3,322.3z"/>
</g>
<g id="XMLID_57_">
	<path id="XMLID_58_" class="st6" d="M443.5,363.9H438v17h-2.7v-17h-5.5v-2.2h13.6V363.9z"/>
	<path id="XMLID_60_" class="st6" d="M471.7,380.9l-4.6-7.6h-4.3v7.6h-2.6v-19.2h7.9c3.8,0,6,2.5,6,5.8c0,2.8-1.5,4.9-4.1,5.6
		l4.7,7.8H471.7z M462.8,371.1h5c2.2,0,3.6-1.3,3.6-3.6c0-2.2-1.4-3.6-3.4-3.6h-5.2V371.1z"/>
	<path id="XMLID_63_" class="st6" d="M502,375.9h-7.7l-1.7,5H490l6.7-19.3h3.2l6.6,19.3h-2.7L502,375.9z M498.2,364.2l-3.4,9.7h6.8
		L498.2,364.2L498.2,364.2z"/>
	<path id="XMLID_66_" class="st6" d="M523,380.9v-19.2h6.8c6,0,8.1,4.2,8.1,9.5c0,5.4-2.1,9.7-8.1,9.7H523z M529.8,378.7
		c4.2,0,5.5-3.3,5.5-7.5c0-4.1-1.3-7.3-5.5-7.3h-4.2v14.8H529.8z"/>
	<path id="XMLID_69_" class="st6" d="M567.6,363.9H558v5.9h8.3v2.2H558v6.7h9.7v2.2h-12.3v-19.2h12.2V363.9z"/>
	<path id="XMLID_71_" class="st6" d="M619.1,379.8c-2,0.8-4.2,1.4-6.3,1.4c-6.2,0-8.3-4.4-8.3-9.9s2.1-9.9,8.3-9.9
		c2.2,0,4.3,0.5,6.3,1.4l-0.5,2c-2.2-0.8-4-1.2-5.6-1.2c-4.4,0-5.9,3.4-5.9,7.7s1.6,7.7,5.9,7.7c1.6,0,3.4-0.3,5.6-1.2L619.1,379.8z
		"/>
	<path id="XMLID_73_" class="st6" d="M648.3,363.9h-9.6v5.9h8.3v2.2h-8.3v6.7h9.7v2.2h-12.3v-19.2h12.2V363.9z"/>
	<path id="XMLID_75_" class="st6" d="M665.6,380.9v-19.2h2.4l10,14.8h0.1l-0.1-4.9v-9.9h2.4v19.2h-2.6l-9.8-14.5h-0.1l0.1,4.6v9.9
		H665.6z"/>
	<path id="XMLID_77_" class="st6" d="M710.6,363.9h-5.5v17h-2.6v-17H697v-2.2h13.6V363.9z"/>
	<path id="XMLID_79_" class="st6" d="M739.4,363.9h-9.6v5.9h8.3v2.2h-8.3v6.7h9.7v2.2h-12.3v-19.2h12.2V363.9z"/>
	<path id="XMLID_81_" class="st6" d="M768.3,380.9l-4.6-7.6h-4.3v7.6h-2.7v-19.2h7.9c3.8,0,6,2.5,6,5.8c0,2.8-1.5,4.9-4.1,5.6
		l4.7,7.8H768.3z M759.4,371.1h5c2.2,0,3.6-1.3,3.6-3.6c0-2.2-1.4-3.6-3.4-3.6h-5.2V371.1z"/>
</g>
</svg>
