<svg id="Capa_1" data-name="Capa 1" xmlns="http://www.w3.org/2000/svg" viewBox="0 0 692.19 304.11"><defs><style>.cls-1{fill:#c2c3c8;}.cls-2{fill:#fff;}.cls-3{fill:#f7f7f8;}.cls-4{fill:#d7d8dc;}</style></defs><title>BTC Grises 2</title><polygon id="_Trazado_" data-name="&lt;Trazado&gt;" class="cls-1" points="292.08 7.47 146.04 26.26 0 7.47 145.67 0 292.08 7.47"/><g id="_Grupo_" data-name="&lt;Grupo&gt;"><g id="_Grupo_2" data-name="&lt;Grupo&gt;"><path id="_Trazado_compuesto_" data-name="&lt;Trazado compuesto&gt;" class="cls-2" d="M506.48,256.44c18,4,29.09,17,29.09,35,0,23.78-15.71,38.86-44.17,38.86H429V185.94h58.18c28.46,0,44.17,14.87,44.17,36.95,0,16.56-9.56,28.67-24.85,33.13Zm-20.6-8.07c16.56,0,25.48-7.22,25.48-22.93,0-14.23-8.92-22.93-25.48-22.93H448.93v45.87Zm-36.95,16.56v48.84h40.35c16.56,0,26.33-7.86,26.33-24.42,0-15.08-9.77-24.42-28.88-24.42Z" transform="translate(-79.1 -143.42)"/><path id="_Trazado_compuesto_2" data-name="&lt;Trazado compuesto&gt;" class="cls-2" d="M648.55,202.5h-41.2V330.34h-20V202.5H546.2V185.94H648.55Z" transform="translate(-79.1 -143.42)"/><path id="_Trazado_compuesto_3" data-name="&lt;Trazado compuesto&gt;" class="cls-2" d="M771.29,322.27c-15.29,6.37-31.43,10.19-47.78,10.19-46.72,0-62.64-32.91-62.64-74.32s15.93-74.32,62.64-74.32c16.35,0,32.49,3.82,47.78,10.19l-3.61,15.29c-16.56-6.37-30.15-8.92-42-8.92-33.13,0-44.81,25.27-44.81,57.76s11.68,57.76,44.81,57.76c11.89,0,25.48-2.55,42-8.92Z" transform="translate(-79.1 -143.42)"/></g><g id="_Grupo_3" data-name="&lt;Grupo&gt;"><path id="_Trazado_compuesto_4" data-name="&lt;Trazado compuesto&gt;" class="cls-2" d="M443.48,363.95H438v17h-2.65v-17h-5.47v-2.2h13.59Z" transform="translate(-79.1 -143.42)"/><path id="_Trazado_compuesto_5" data-name="&lt;Trazado compuesto&gt;" class="cls-2" d="M471.66,380.92,467,373.3h-4.28v7.61h-2.65V361.75H468c3.78,0,6,2.48,6,5.78a5.3,5.3,0,0,1-4.12,5.55l4.74,7.84Zm-8.91-9.81h5a3.58,3.58,0,0,0,.25-7.16h-5.24Z" transform="translate(-79.1 -143.42)"/><path id="_Trazado_compuesto_6" data-name="&lt;Trazado compuesto&gt;" class="cls-2" d="M502,375.9h-7.7l-1.72,5H490l6.68-19.31h3.21l6.57,19.31h-2.73Zm-3.83-11.7-3.41,9.72h6.76l-3.3-9.72Z" transform="translate(-79.1 -143.42)"/><path id="_Trazado_compuesto_7" data-name="&lt;Trazado compuesto&gt;" class="cls-2" d="M523,380.92V361.75h6.76c6,0,8.12,4.17,8.12,9.5s-2.14,9.67-8.12,9.67Zm6.76-2.2c4.17,0,5.47-3.33,5.47-7.47s-1.3-7.3-5.47-7.3h-4.23v14.77Z" transform="translate(-79.1 -143.42)"/><path id="_Trazado_compuesto_8" data-name="&lt;Trazado compuesto&gt;" class="cls-2" d="M567.57,363.95H558v5.92h8.26v2.2H558v6.65h9.7v2.2H555.36V361.75h12.2Z" transform="translate(-79.1 -143.42)"/><path id="_Trazado_compuesto_9" data-name="&lt;Trazado compuesto&gt;" class="cls-2" d="M619.11,379.84a16.52,16.52,0,0,1-6.34,1.35c-6.2,0-8.32-4.37-8.32-9.87s2.11-9.86,8.32-9.86a16.52,16.52,0,0,1,6.34,1.35l-.48,2a15.49,15.49,0,0,0-5.58-1.18c-4.4,0-5.95,3.35-5.95,7.67s1.55,7.67,5.95,7.67a15.49,15.49,0,0,0,5.58-1.18Z" transform="translate(-79.1 -143.42)"/><path id="_Trazado_compuesto_10" data-name="&lt;Trazado compuesto&gt;" class="cls-2" d="M648.28,363.95h-9.56v5.92H647v2.2h-8.26v6.65h9.7v2.2H636.07V361.75h12.2Z" transform="translate(-79.1 -143.42)"/><path id="_Trazado_compuesto_11" data-name="&lt;Trazado compuesto&gt;" class="cls-2" d="M665.58,380.92V361.75H668l10,14.8H678l-.06-4.88v-9.92h2.42v19.17h-2.59L668,366.37h-.06L668,371v9.92Z" transform="translate(-79.1 -143.42)"/><path id="_Trazado_compuesto_12" data-name="&lt;Trazado compuesto&gt;" class="cls-2" d="M710.62,363.95h-5.47v17H702.5v-17H697v-2.2h13.59Z" transform="translate(-79.1 -143.42)"/><path id="_Trazado_compuesto_13" data-name="&lt;Trazado compuesto&gt;" class="cls-2" d="M739.45,363.95h-9.55v5.92h8.26v2.2h-8.26v6.65h9.7v2.2H727.24V361.75h12.2Z" transform="translate(-79.1 -143.42)"/><path id="_Trazado_compuesto_14" data-name="&lt;Trazado compuesto&gt;" class="cls-2" d="M768.3,380.92l-4.62-7.61H759.4v7.61h-2.65V361.75h7.89c3.78,0,6,2.48,6,5.78a5.3,5.3,0,0,1-4.11,5.55l4.74,7.84Zm-8.91-9.81h5a3.58,3.58,0,0,0,.25-7.16H759.4Z" transform="translate(-79.1 -143.42)"/></g></g><polygon class="cls-3" points="236.06 94.02 166.1 114.67 165.76 240.32 146.04 251.69 146.04 304.11 292.08 218.22 292.08 7.47 146.04 26.18 146.04 72.9 236.06 55.21 236.06 94.02"/><polygon class="cls-3" points="146.04 165.81 146.04 108.14 146.04 251.69 146.04 165.81"/><polygon class="cls-3" points="146.04 72.9 146.04 108.14 146.04 72.9 146.04 72.9"/><polygon class="cls-4" points="0 7.47 0 219.88 146.04 304.11 146.04 251.69 126.33 240.32 125.98 114.67 56.02 94.02 56.02 55.21 146.04 72.9 146.04 165.81 146.04 251.69 146.04 26.18 0 7.47"/></svg>